<svg version="1.0" xmlns="http://www.w3.org/2000/svg"
 width="50" height="50" viewBox="0 0 512.000000 512.000000"
 preserveAspectRatio="xMidYMid meet">

<g transform="translate(0.000000,512.000000) scale(0.100000,-0.100000)"
fill="#000000" stroke="none">
<path d="M2490 5009 c-124 -21 -237 -94 -440 -284 -74 -70 -163 -147 -197
-171 -111 -81 -159 -90 -573 -114 -97 -5 -202 -17 -235 -26 -147 -39 -243
-115 -300 -236 -45 -96 -62 -202 -74 -463 -17 -357 -27 -381 -285 -655 -231
-245 -302 -390 -275 -562 21 -133 91 -243 284 -448 70 -74 147 -163 172 -197
80 -111 89 -159 113 -573 14 -248 47 -355 142 -452 99 -101 237 -142 523 -153
209 -8 325 -21 392 -45 75 -26 156 -87 313 -235 74 -70 162 -147 196 -171 165
-118 323 -147 477 -87 75 29 200 119 322 233 295 276 312 283 683 300 123 6
256 17 295 24 240 47 360 167 402 406 8 41 19 174 25 295 12 250 19 296 59
380 34 73 73 121 236 295 208 222 268 332 268 490 0 155 -67 276 -283 505 -73
77 -152 168 -177 202 -80 111 -89 159 -113 573 -5 97 -17 202 -26 235 -39 147
-115 243 -236 300 -96 45 -201 62 -468 75 -350 16 -378 29 -650 284 -74 70
-168 150 -209 178 -118 82 -245 116 -361 97z m173 -175 c65 -23 141 -81 295
-223 178 -165 236 -210 323 -251 96 -44 179 -59 409 -70 248 -12 298 -17 375
-41 112 -34 173 -112 200 -252 7 -40 16 -148 20 -242 15 -417 43 -491 288
-755 228 -247 277 -325 277 -440 0 -116 -46 -190 -273 -434 -248 -267 -277
-341 -292 -756 -10 -268 -39 -380 -117 -445 -74 -62 -164 -81 -458 -95 -248
-11 -331 -25 -429 -70 -87 -41 -142 -83 -324 -251 -215 -199 -285 -241 -397
-241 -112 0 -187 45 -400 243 -178 165 -234 208 -321 249 -96 44 -179 59 -409
70 -113 5 -230 13 -260 16 -90 11 -172 41 -217 79 -84 72 -108 165 -123 485
-11 248 -25 331 -70 429 -41 86 -79 136 -248 319 -200 218 -244 290 -244 402
0 113 41 181 253 410 269 291 291 344 310 725 15 327 39 428 117 496 75 66
163 85 462 99 393 18 452 42 735 305 200 186 253 224 346 249 57 16 107 13
172 -10z"/>
<path d="M2455 4597 c-98 -33 -169 -84 -359 -259 -188 -174 -214 -183 -506
-198 -289 -14 -372 -35 -465 -121 -102 -94 -130 -188 -145 -482 -15 -300 -24
-324 -198 -513 -146 -158 -199 -227 -236 -304 -28 -59 -31 -74 -31 -160 0 -83
4 -103 27 -154 39 -81 84 -140 226 -294 189 -207 197 -225 212 -527 15 -289
41 -386 130 -475 89 -89 187 -116 470 -130 218 -11 284 -23 354 -64 24 -14
111 -88 195 -164 219 -201 311 -249 456 -240 129 8 212 59 430 261 198 183
219 192 520 207 289 15 386 41 475 130 89 89 116 187 130 470 15 306 22 323
206 524 146 158 188 213 228 296 28 59 31 74 31 160 0 86 -3 101 -31 160 -40
83 -82 138 -228 296 -65 71 -130 149 -144 173 -38 66 -51 137 -62 356 -14 278
-41 376 -130 465 -89 89 -186 116 -475 130 -301 15 -318 22 -519 206 -228 211
-304 256 -441 261 -48 2 -96 -2 -120 -10z m213 -178 c35 -17 103 -68 157 -117
181 -165 239 -213 291 -243 87 -49 182 -67 412 -79 223 -10 293 -24 351 -67
66 -51 101 -183 101 -388 0 -124 18 -258 44 -330 31 -87 80 -154 211 -295 168
-180 214 -253 215 -340 0 -86 -46 -157 -229 -354 -122 -131 -172 -204 -200
-288 -25 -77 -41 -203 -41 -323 0 -178 -29 -314 -78 -368 -24 -26 -81 -55
-138 -67 -26 -6 -137 -15 -248 -20 -348 -17 -364 -24 -688 -318 -226 -204
-314 -203 -547 11 -232 212 -293 254 -412 282 -35 8 -154 19 -265 25 -207 10
-273 19 -328 46 -100 51 -123 119 -136 409 -17 354 -29 381 -307 686 -208 227
-213 324 -28 531 41 46 109 121 150 167 143 160 170 238 184 540 10 209 20
270 51 331 48 93 121 117 402 130 314 16 387 40 552 188 44 39 118 106 164
147 153 136 244 163 360 104z"/>
<path d="M1281 2854 c-20 -26 -21 -38 -21 -331 l0 -304 25 -24 c15 -16 36 -25
55 -25 19 0 40 9 55 25 24 23 25 30 25 150 l0 125 138 0 c132 0 140 1 160 23
27 29 28 77 3 108 -18 23 -26 24 -160 27 l-141 4 0 44 0 44 119 0 c125 0 175
11 191 40 16 31 11 79 -10 100 -19 19 -33 20 -219 20 l-200 0 -20 -26z"/>
<path d="M1830 2860 c-19 -19 -20 -33 -20 -328 l0 -309 23 -21 c13 -12 35 -22
49 -22 76 0 88 30 89 217 l0 148 65 -165 c36 -92 74 -173 85 -182 46 -39 129
-3 129 55 0 13 -21 77 -46 141 l-46 118 30 31 c82 85 80 210 -4 289 -44 41
-75 48 -210 48 -111 0 -126 -2 -144 -20z m255 -175 c0 -26 -5 -31 -39 -40 -21
-6 -47 -22 -57 -34 -19 -23 -19 -23 -19 43 l0 67 58 -3 c56 -3 57 -4 57 -33z"/>
<path d="M2360 2860 c-22 -22 -24 -70 -20 -480 2 -209 -7 -200 196 -200 169 0
188 6 200 66 5 24 0 37 -19 60 -24 28 -30 29 -121 32 l-96 4 0 54 0 54 85 0
c97 0 129 11 145 51 14 33 6 62 -23 89 -18 17 -35 20 -114 20 l-93 0 0 54 0
54 95 4 c82 3 97 6 117 25 31 31 30 89 -1 114 -20 17 -42 19 -177 19 -141 0
-156 -2 -174 -20z"/>
<path d="M2882 2857 c-21 -22 -22 -32 -22 -194 0 -224 -5 -217 154 -221 l116
-4 0 -49 0 -49 -100 0 c-105 0 -151 -13 -164 -45 -13 -34 -6 -72 17 -93 22
-21 33 -22 191 -22 164 0 167 0 191 25 24 24 25 27 25 185 0 158 -1 161 -25
185 -23 24 -31 25 -135 25 l-110 0 0 59 0 59 111 4 c107 3 112 4 135 31 29 34
31 66 3 101 l-20 26 -173 0 c-167 0 -173 -1 -194 -23z"/>
<path d="M3459 2861 l-24 -19 0 -317 0 -317 24 -19 c32 -26 77 -24 106 6 24
23 25 30 25 150 l0 126 113 -3 112 -3 5 -127 c4 -112 7 -129 25 -142 23 -18
68 -20 95 -6 33 18 40 76 40 346 0 321 -6 344 -89 344 -58 0 -71 -26 -71 -145
l0 -105 -115 0 -115 0 0 103 c0 95 -2 105 -23 125 -29 27 -77 28 -108 3z"/>
</g>
</svg>
