<svg version="1.0" xmlns="http://www.w3.org/2000/svg"
 width="50" height="50" viewBox="0 0 512.000000 512.000000"
 preserveAspectRatio="xMidYMid meet">

<g transform="translate(0.000000,512.000000) scale(0.100000,-0.100000)"
fill="#382d2c" stroke="none">
<path d="M1000 5109 c-14 -6 -36 -20 -48 -32 -55 -51 -52 28 -52 -1390 l0
-1314 23 -33 c38 -57 71 -75 137 -75 66 0 99 18 138 75 l22 33 0 1208 0 1209
1893 2 1892 3 37 23 c41 25 78 91 78 138 0 53 -40 117 -90 142 l-44 22 -1981
-1 c-1291 0 -1989 -4 -2005 -10z"/>
<path d="M4921 4570 c-48 -11 -83 -40 -108 -90 l-23 -44 0 -2053 0 -2053
-1258 -2 -1258 -3 -37 -25 c-42 -28 -77 -91 -77 -136 0 -53 40 -117 90 -142
l44 -22 1346 0 1346 0 44 23 c33 16 51 34 68 67 l22 44 0 2153 c0 1807 -2
2159 -14 2186 -16 39 -62 82 -96 92 -46 12 -55 13 -89 5z"/>
<path d="M4380 4215 c-20 -9 -132 -113 -262 -242 l-227 -227 -80 77 c-92 90
-135 112 -200 102 -59 -9 -125 -71 -135 -127 -14 -78 5 -109 156 -264 176
-180 231 -209 321 -170 18 8 167 150 334 317 324 327 324 327 310 415 -16 96
-129 158 -217 119z"/>
<path d="M1541 3910 c-64 -15 -117 -70 -128 -133 -8 -53 20 -121 65 -155 l35
-27 859 -3 c849 -2 859 -2 898 18 46 24 76 66 85 122 5 30 1 49 -17 85 -27 55
-59 81 -114 93 -48 12 -1635 11 -1683 0z"/>
<path d="M4380 2984 c-21 -9 -128 -107 -262 -241 l-227 -227 -85 81 c-92 89
-136 111 -202 98 -51 -9 -119 -76 -128 -127 -14 -78 5 -109 156 -264 176 -180
231 -209 321 -170 18 8 167 150 334 317 263 265 302 309 308 342 16 84 -18
156 -89 188 -49 22 -80 23 -126 3z"/>
<path d="M1526 2700 c-60 -18 -116 -95 -116 -158 0 -49 41 -113 90 -139 l43
-23 840 0 c830 0 841 0 883 21 70 33 105 111 85 186 -13 47 -65 100 -112 113
-43 12 -1672 12 -1713 0z"/>
<path d="M285 2145 c-22 -8 -41 -15 -41 -15 -1 0 -13 -17 -28 -38 -21 -31 -45
-118 -122 -448 -66 -284 -94 -421 -91 -447 3 -21 17 -54 32 -73 74 -96 228
-79 275 30 10 23 50 184 90 359 l74 317 49 0 c48 0 48 -1 43 -27 -17 -90 -67
-589 -62 -618 19 -100 140 -154 235 -105 73 37 79 56 117 387 47 407 35 363
94 363 l49 0 3 -334 c3 -320 4 -336 24 -362 34 -46 70 -67 123 -72 41 -4 58 0
94 21 80 47 82 55 85 425 l3 322 47 0 47 0 38 -325 c21 -188 43 -337 51 -353
61 -117 208 -124 283 -13 30 45 30 79 -7 386 -39 328 -40 305 14 305 34 0 46
-4 50 -17 2 -10 37 -157 76 -328 40 -170 78 -321 85 -335 43 -83 153 -116 226
-67 49 33 79 83 79 130 0 38 -170 789 -191 845 -15 39 -38 62 -84 83 -38 18
-86 19 -880 18 -706 0 -846 -2 -880 -14z"/>
<path d="M4390 1763 c-16 -3 -112 -91 -262 -241 l-238 -236 -83 81 c-91 89
-136 111 -203 98 -51 -9 -119 -76 -128 -127 -13 -74 6 -109 132 -239 184 -192
230 -221 320 -204 32 6 79 48 344 313 219 217 311 316 319 340 15 45 6 118
-18 151 -38 51 -111 77 -183 64z"/>
<path d="M2555 1484 c-71 -37 -101 -92 -92 -171 6 -57 31 -92 87 -120 43 -22
52 -23 357 -23 347 0 356 1 409 62 73 83 41 211 -62 254 -52 22 -657 20 -699
-2z"/>
<path d="M347 1046 c-51 -19 -85 -52 -98 -95 -6 -23 -9 -181 -7 -443 3 -393 4
-408 24 -434 11 -15 33 -37 48 -48 27 -21 37 -21 824 -24 l797 -2 45 22 c33
17 51 35 68 68 22 44 22 50 22 437 0 428 -1 435 -56 487 -60 55 -150 56 -212
2 -60 -53 -62 -64 -62 -391 l0 -295 -590 0 -590 0 0 309 c0 303 0 309 -23 341
-42 63 -122 91 -190 66z"/>
</g>
</svg>
